<svg xmlns="http://www.w3.org/2000/svg" xmlns:xlink="http://www.w3.org/1999/xlink" width="103.24" height="23.5"><path fill="#F47520" d="M4.32 19.60L4.32 19.60Q3.36 19.60 2.64 19.41L2.64 19.41L2.64 19.41Q1.92 19.22 1.04 18.86L1.04 18.86L1.04 16.24L1.04 16.24Q2.66 17.46 4.44 17.46L4.44 17.46L4.44 17.46Q5.12 17.46 5.43 17.23L5.43 17.23L5.43 17.23Q5.74 17 5.74 16.60L5.74 16.60L5.74 16.60Q5.74 16.14 5.24 15.92L5.24 15.92L5.24 15.92Q4.74 15.70 3.64 15.44L3.64 15.44L3.64 15.44Q2.48 15.20 1.73 14.48L1.73 14.48L1.73 14.48Q0.98 13.76 0.98 12.38L0.98 12.38L0.98 12.38Q0.98 11.20 1.58 10.44L1.58 10.44L1.58 10.44Q2.18 9.68 3.09 9.33L3.09 9.33L3.09 9.33Q4 8.98 4.98 8.98L4.98 8.98L4.98 8.98Q6.18 8.98 6.93 9.19L6.93 9.19L6.93 9.19Q7.68 9.40 8.40 9.84L8.40 9.84L8.40 12.18L8.40 12.18Q7.38 11.62 6.82 11.38L6.82 11.38L6.82 11.38Q6.26 11.14 5.52 11.14L5.52 11.14L5.52 11.14Q4.78 11.14 4.42 11.37L4.42 11.37L4.42 11.37Q4.06 11.60 4.06 12.02L4.06 12.02L4.06 12.02Q4.06 12.52 4.46 12.75L4.46 12.75L4.46 12.75Q4.86 12.98 5.74 13.22L5.74 13.22L5.74 13.22Q6.74 13.48 7.32 13.73L7.32 13.73L7.32 13.73Q7.90 13.98 8.36 14.59L8.36 14.59L8.36 14.59Q8.82 15.20 8.82 16.30L8.82 16.30L8.82 16.30Q8.78 18.02 7.52 18.81L7.52 18.81L7.52 18.81Q6.26 19.60 4.32 19.60L4.32 19.60ZM22.48 8.90L22.48 8.90Q24.60 8.90 25.62 9.73L25.62 9.73L25.62 9.73Q26.64 10.56 26.64 12.50L26.64 12.50L26.64 19.30L23.66 19.30L23.66 13.10L23.66 13.10Q23.66 11.36 21.70 11.36L21.70 11.36L21.70 11.36Q20.88 11.36 20.32 11.74L20.32 11.74L20.32 11.74Q20.36 12.22 20.36 12.50L20.36 12.50L20.36 19.30L17.38 19.30L17.38 13.10L17.38 13.10Q17.38 11.36 15.42 11.36L15.42 11.36L15.42 11.36Q14.62 11.36 13.94 11.70L13.94 11.70L13.94 19.30L10.96 19.30L10.96 10.04L10.96 10.04Q11.74 9.62 13.34 9.26L13.34 9.26L13.34 9.26Q14.94 8.90 16.20 8.90L16.20 8.90L16.20 8.90Q18.22 8.90 19.18 9.62L19.18 9.62L19.18 9.62Q19.96 9.28 20.83 9.09L20.83 9.09L20.83 9.09Q21.70 8.90 22.48 8.90L22.48 8.90ZM33.84 19.60L33.84 19.60Q31.28 19.60 30 18.24L30 18.24L30 18.24Q28.72 16.88 28.72 14.20L28.72 14.20L28.72 14.20Q28.72 11.40 29.99 10.12L29.99 10.12L29.99 10.12Q31.26 8.84 33.84 8.84L33.84 8.84L33.84 8.84Q36.42 8.84 37.72 10.15L37.72 10.15L37.72 10.15Q39.02 11.46 39.02 14.20L39.02 14.20L39.02 14.20Q39.02 16.84 37.68 18.22L37.68 18.22L37.68 18.22Q36.34 19.60 33.84 19.60L33.84 19.60ZM33.84 17.22L33.84 17.22Q34.94 17.22 35.50 16.45L35.50 16.45L35.50 16.45Q36.06 15.68 36.06 14.20L36.06 14.20L36.06 14.20Q36.06 12.58 35.51 11.89L35.51 11.89L35.51 11.89Q34.96 11.20 33.84 11.20L33.84 11.20L33.84 11.20Q32.68 11.20 32.17 11.89L32.17 11.89L32.17 11.89Q31.66 12.58 31.66 14.20L31.66 14.20L31.66 14.20Q31.66 15.74 32.19 16.48L32.19 16.48L32.19 16.48Q32.72 17.22 33.84 17.22L33.84 17.22ZM45.64 19.60L45.64 19.60Q43.08 19.60 41.80 18.24L41.80 18.24L41.80 18.24Q40.52 16.88 40.52 14.20L40.52 14.20L40.52 14.20Q40.52 11.40 41.79 10.12L41.79 10.12L41.79 10.12Q43.06 8.84 45.64 8.84L45.64 8.84L45.64 8.84Q48.22 8.84 49.52 10.15L49.52 10.15L49.52 10.15Q50.82 11.46 50.82 14.20L50.82 14.20L50.82 14.20Q50.82 16.84 49.48 18.22L49.48 18.22L49.48 18.22Q48.14 19.60 45.64 19.60L45.64 19.60ZM45.64 17.22L45.64 17.22Q46.74 17.22 47.30 16.45L47.30 16.45L47.30 16.45Q47.86 15.68 47.86 14.20L47.86 14.20L47.86 14.20Q47.86 12.58 47.31 11.89L47.31 11.89L47.31 11.89Q46.76 11.20 45.64 11.20L45.64 11.20L45.64 11.20Q44.48 11.20 43.97 11.89L43.97 11.89L43.97 11.89Q43.46 12.58 43.46 14.20L43.46 14.20L43.46 14.20Q43.46 15.74 43.99 16.48L43.99 16.48L43.99 16.48Q44.52 17.22 45.64 17.22L45.64 17.22ZM57.02 19.70L57.02 19.70Q55.28 19.70 54.41 18.88L54.41 18.88L54.41 18.88Q53.54 18.06 53.54 16.52L53.54 16.52L53.54 11.46L52.06 11.46L52.06 9.18L53.54 9.18L53.54 6.40L56.66 6.40L56.66 9.18L58.88 9.18L58.88 11.46L56.66 11.46L56.66 16.14L56.66 16.14Q56.66 16.66 56.88 16.91L56.88 16.91L56.88 16.91Q57.10 17.16 57.62 17.16L57.62 17.16L57.62 17.16Q57.94 17.16 58.28 17.05L58.28 17.05L58.28 17.05Q58.62 16.94 58.88 16.74L58.88 16.74L58.88 19.28L58.88 19.28Q58.12 19.70 57.02 19.70L57.02 19.70ZM67 8.90L67 8.90Q68.76 8.90 69.74 9.78L69.74 9.78L69.74 9.78Q70.72 10.66 70.72 12.66L70.72 12.66L70.72 19.30L67.74 19.30L67.74 13.28L67.74 13.28Q67.74 11.36 65.82 11.36L65.82 11.36L65.82 11.36Q65.36 11.36 64.88 11.50L64.88 11.50L64.88 11.50Q64.40 11.64 64.14 11.84L64.14 11.84L64.10 19.30L61.14 19.30L61.14 5.18L64.14 5.18L64.14 9.64L64.14 9.64Q65.52 8.90 67 8.90L67 8.90ZM73.36 19.30L73.36 10.24L73.36 10.24Q73.66 9.98 74.41 9.66L74.41 9.66L74.41 9.66Q75.16 9.34 76.09 9.11L76.09 9.11L76.09 9.11Q77.02 8.88 77.88 8.88L77.88 8.88L77.88 8.88Q79.54 8.88 80.18 9.38L80.18 9.38L80.18 11.56L80.18 11.56Q79.38 11.38 77.88 11.38L77.88 11.38L77.88 11.38Q76.94 11.38 76.34 11.48L76.34 11.48L76.34 19.30L73.36 19.30ZM86.12 19.60L86.12 19.60Q83.56 19.60 82.28 18.24L82.28 18.24L82.28 18.24Q81.00 16.88 81.00 14.20L81.00 14.20L81.00 14.20Q81.00 11.40 82.27 10.12L82.27 10.12L82.27 10.12Q83.54 8.84 86.12 8.84L86.12 8.84L86.12 8.84Q88.70 8.84 90.00 10.15L90.00 10.15L90.00 10.15Q91.30 11.46 91.30 14.20L91.30 14.20L91.30 14.20Q91.30 16.84 89.96 18.22L89.96 18.22L89.96 18.22Q88.62 19.60 86.12 19.60L86.12 19.60ZM86.12 17.22L86.12 17.22Q87.22 17.22 87.78 16.45L87.78 16.45L87.78 16.45Q88.34 15.68 88.34 14.20L88.34 14.20L88.34 14.20Q88.34 12.58 87.79 11.89L87.79 11.89L87.79 11.89Q87.24 11.20 86.12 11.20L86.12 11.20L86.12 11.20Q84.96 11.20 84.45 11.89L84.45 11.89L84.45 11.89Q83.94 12.58 83.94 14.20L83.94 14.20L83.94 14.20Q83.94 15.74 84.47 16.48L84.47 16.48L84.47 16.48Q85.00 17.22 86.12 17.22L86.12 17.22ZM96.32 19.30L93.36 19.30L93.36 5.36L96.32 5.36L96.32 19.30ZM101.92 19.30L98.96 19.30L98.96 5.36L101.92 5.36L101.92 19.30Z"/></svg>